<svg xmlns="http://www.w3.org/2000/svg" width="29.062" height="29.062" viewBox="0 0 29.062 29.062">
  <g id="google-plus-logo-button" transform="translate(0 0)">
    <g id="Group_6" data-name="Group 6" transform="translate(0 0)">
      <g id="Group_5" data-name="Group 5">
        <path id="Path_12" data-name="Path 12" d="M18.652,28.7c-.094-.063-.191-.131-.292-.2a3.313,3.313,0,0,0-.927-.141h-.039c-1.471,0-2.762.89-2.762,1.906a2.269,2.269,0,0,0,2.516,1.971c1.861,0,2.8-.643,2.8-1.907a1.584,1.584,0,0,0-.044-.368C19.783,29.471,19.333,29.164,18.652,28.7Z" transform="translate(-6.068 -11.76)" fill="#bb570b"/>
        <path id="Path_13" data-name="Path 13" d="M18.248,19.11h0a1.127,1.127,0,0,0,.879-.4,2.308,2.308,0,0,0,.426-1.8,2.55,2.55,0,0,0-2.036-2.372h-.038a1.128,1.128,0,0,0-.868.4A2.237,2.237,0,0,0,16.2,16.7c.167,1.278,1.1,2.383,2.036,2.412Z" transform="translate(-6.706 -6.027)" fill="#bb570b"/>
        <path id="Path_14" data-name="Path 14" d="M14.531,0A14.531,14.531,0,1,0,29.062,14.531,14.548,14.548,0,0,0,14.531,0ZM12.856,21.607a6.365,6.365,0,0,1-1.766.239,8.1,8.1,0,0,1-1.984-.237A3.848,3.848,0,0,1,6.6,19.987a2.064,2.064,0,0,1-.27-1.017,2.582,2.582,0,0,1,.259-1.1,4.718,4.718,0,0,1,4.325-2.352h.055a1.716,1.716,0,0,1-.232-.862,1.832,1.832,0,0,1,.06-.457,3.47,3.47,0,0,1-3.532-3.476A3.712,3.712,0,0,1,9.937,7.462a4.365,4.365,0,0,1,1.424-.246h4.321a.339.339,0,0,1,.2.614l-.966.7a.346.346,0,0,1-.2.063H14.37a3.363,3.363,0,0,1,.708,2.157,3.218,3.218,0,0,1-1.35,2.523c-.673.524-.7.669-.7.968a2.87,2.87,0,0,0,.994,1.067,3.341,3.341,0,0,1,1.654,3.084A3.522,3.522,0,0,1,12.856,21.607ZM22.614,14.2a.34.34,0,0,1-.339.339H19.819v2.457a.34.34,0,0,1-.338.339h-.7a.34.34,0,0,1-.341-.339V14.535H15.987a.339.339,0,0,1-.339-.339v-.7a.341.341,0,0,1,.339-.341H18.44V10.7a.34.34,0,0,1,.341-.339h.7a.339.339,0,0,1,.338.339v2.454h2.455a.34.34,0,0,1,.339.339v.7Z" fill="#bb570b"/>
      </g>
    </g>
  </g>
</svg>
