<svg xmlns="http://www.w3.org/2000/svg" width="12.593" height="9.235" viewBox="0 0 12.593 9.235">
  <path id="id-svgrepo-com" d="M0,3.259A1.259,1.259,0,0,1,1.259,2H11.334a1.259,1.259,0,0,1,1.259,1.259V9.976a1.259,1.259,0,0,1-1.259,1.259H1.259A1.259,1.259,0,0,1,0,9.976Zm2.519,2.1A1.679,1.679,0,1,1,4.2,7.037,1.679,1.679,0,0,1,2.519,5.358Zm7.556,0H7.556v-.84h2.519Zm0,2.519H7.556v-.84h2.519Zm-5.877,0A2.457,2.457,0,0,0,2,9.235l-.276.553A.42.42,0,0,0,2.1,10.4H6.3a.42.42,0,0,0,.375-.607L6.4,9.235A2.457,2.457,0,0,0,4.2,7.877Z" transform="translate(0 -2)" fill="#a4a4a4" fill-rule="evenodd"/>
</svg>
