<svg xmlns="http://www.w3.org/2000/svg" width="99.696" height="120.921" viewBox="0 0 99.696 120.921">
  <g id="Group_54" data-name="Group 54" transform="translate(-16498.89 756.925)">
    <g id="Group_1" data-name="Group 1" transform="translate(16535.752 -743.986)">
      <path id="Path_1" data-name="Path 1" d="M108.586,114.807V94.979Q78.845,56.72,49.289,18.461c-1.21-1.489-2.327-3.072-3.537-4.561.093.186.186.465.279.652q30.3,48.452,60.6,97.09c.559,1.024,1.3,1.955,1.769,2.979Z" transform="translate(-45.752 -13.9)" fill="#1baef2" fill-rule="evenodd"/>
    </g>
    <g id="Group_2" data-name="Group 2" transform="translate(16534.82 -745.103)">
      <path id="Path_2" data-name="Path 2" d="M108.238,114.445c-.465-1.024-1.21-1.955-1.769-2.979-20.2-32.3-40.307-64.7-60.6-97.09a4.576,4.576,0,0,1-.279-.652,8.024,8.024,0,0,0-.838-1.024V56.823l.093.093a5.689,5.689,0,0,1,.652-1.3c4.1-7.261,8.1-14.615,12.194-21.969,0,.093.093.372.093.465V68.553l49.988,45.52A2.043,2.043,0,0,1,108.238,114.445Z" transform="translate(-44.752 -12.7)" fill="#20a0da" fill-rule="evenodd"/>
    </g>
    <g id="Group_3" data-name="Group 3" transform="translate(16547.203 -659.649)">
      <path id="Path_3" data-name="Path 3" d="M98.08,128.144c-8.564-7.912-17.221-15.732-25.785-23.644-4.654,1.676-9.495,3.072-14.242,4.747,3.351,1.676,6.7,3.165,10.147,4.841C78.066,118.742,88.026,123.49,98.08,128.144Z" transform="translate(-58.052 -104.5)" fill="#69a846" fill-rule="evenodd"/>
    </g>
    <g id="Group_4" data-name="Group 4" transform="translate(16502.984 -689.158)">
      <path id="Path_4" data-name="Path 4" d="M55.42,85.274c.093-4.189,0-8.285,0-12.474Q33.5,95.281,11.762,117.947a8.694,8.694,0,0,0-1.21,1.4c1.4-.931,2.793-2.048,4.189-3.072,11.915-9.029,23.83-18.152,35.653-27.182C52.069,87.787,53.745,86.484,55.42,85.274Z" transform="translate(-10.552 -72.8)" fill="#0e5091" fill-rule="evenodd"/>
    </g>
    <path id="Path_5" data-name="Path 5" d="M55.365,70.115V35.765c0-.093-.093-.372-.093-.465-4.1,7.261-8.1,14.615-12.194,21.969a5.689,5.689,0,0,0-.652,1.3l-.093-.093C31.721,77.655,21.109,96.738,10.59,115.914c-.279.465-.559,1.024-.838,1.489.186-.186.465-.372.652-.559a5.693,5.693,0,0,1,1.21-1.4c14.708-15.173,29.229-30.253,43.751-45.334Z" transform="translate(16492.49 -759.365)" fill="#0f5dab" fill-rule="evenodd"/>
    <path id="Path_6" data-name="Path 6" d="M46.239,103.86c-5.865,4.468-11.822,8.936-17.687,13.5,9.123-2.979,18.245-5.958,27.275-8.843h.186c4.654-1.676,9.495-3.072,14.242-4.747-3.63-3.351-7.168-6.609-10.8-9.867C55.082,97.158,50.614,100.509,46.239,103.86Z" transform="translate(16491.189 -763.416)" fill="#76c044" fill-rule="evenodd"/>
    <path id="Path_7" data-name="Path 7" d="M37.616,50.547c.093-10.612,0-21.317,0-31.929V0C27.1,21.876,16.671,43.751,6.152,65.72,12.3,62.834,18.346,59.762,24.4,56.876v-.093c2.42-1.024,4.747-2.327,7.168-3.444C33.613,52.408,35.475,51.384,37.616,50.547Z" transform="translate(16492.738 -756.925)" fill="#76c044" fill-rule="evenodd"/>
    <g id="Group_5" data-name="Group 5" transform="translate(16510.248 -706.286)">
      <path id="Path_8" data-name="Path 8" d="M27.94,73.3c3.444-6.33,6.982-12.567,10.426-18.9-2.048.745-3.91,1.862-5.865,2.793-2.42,1.117-4.747,2.42-7.168,3.444v.093L18.352,90.89C21.517,84.933,24.682,79.068,27.94,73.3Z" transform="translate(-18.352 -54.4)" fill="#69a846" fill-rule="evenodd"/>
    </g>
  </g>
</svg>
