<svg xmlns="http://www.w3.org/2000/svg" width="16" height="13.942" viewBox="0 0 16 13.942">
  <g id="person-man-svgrepo-com" transform="translate(-1 -1.058)">
    <g id="Group_16070" data-name="Group 16070" transform="translate(1 1)">
      <path id="Path_11532" data-name="Path 11532" d="M8.918,12.338l-.943,1.62-.942-1.62.488-3.3h.908Z" fill="#a4a4a4" fill-rule="evenodd"/>
      <path id="Path_11533" data-name="Path 11533" d="M5.534,14c-1.7-2.254-1.156-5.776-1.324-6C.123,8,0,14,0,14Z" fill="#a4a4a4" fill-rule="evenodd"/>
      <path id="Path_11534" data-name="Path 11534" d="M10.582,14H16s0-6.031-3.681-6.031C12.156,8.189,12.285,11.728,10.582,14Z" fill="#a4a4a4" fill-rule="evenodd"/>
      <path id="Path_11535" data-name="Path 11535" d="M8.008,7.941C6.39,7.941,5,4.732,5,3.064a3,3,0,1,1,6,0C11,4.732,9.628,7.941,8.008,7.941Z" fill="#a4a4a4" fill-rule="evenodd"/>
    </g>
  </g>
</svg>
