<svg xmlns="http://www.w3.org/2000/svg" width="13" height="10.242" viewBox="0 0 13 10.242">
    <g id="phone-svgrepo-com" transform="translate(-127.05)">
        <path id="Path_11531" data-name="Path 11531"
            d="M136,0H124.689a.579.579,0,0,0-.639.485v15.76a.579.579,0,0,0,.639.485H136a.579.579,0,0,0,.639-.485V.485A.579.579,0,0,0,136,0Zm-1.336.813a.3.3,0,0,1,.336.255.349.349,0,0,1-.672,0A.3.3,0,0,1,134.665.813Zm-.681.138a.139.139,0,0,1,.154.116.159.159,0,0,1-.307,0A.139.139,0,0,1,133.983.952Zm-.406,0a.139.139,0,0,1,.154.116.159.159,0,0,1-.307,0C133.423,1,133.492.952,133.577.952ZM129.085.813h2.52v.509h-2.52Zm2.52,15.171h-2.52v-.509h2.52Zm3.7-1.118h-9.922V1.917h9.922Z"
            transform="translate(3)" fill="#a4a4a4" />
    </g>
</svg>
