<svg xmlns="http://www.w3.org/2000/svg" width="29.062" height="29.062" viewBox="0 0 29.062 29.062">
  <g id="twitter-logo-button" transform="translate(0 0)">
    <g id="Group_7" data-name="Group 7" transform="translate(0 0)">
      <path id="Path_15" data-name="Path 15" d="M14.531,0A14.531,14.531,0,1,0,29.062,14.531,14.548,14.548,0,0,0,14.531,0Zm6.482,11.205c.006.144.01.289.01.434A9.514,9.514,0,0,1,6.38,19.653a6.753,6.753,0,0,0,4.952-1.385,3.348,3.348,0,0,1-3.124-2.323,3.357,3.357,0,0,0,1.51-.056,3.345,3.345,0,0,1-2.683-3.28c0-.014,0-.029,0-.042a3.331,3.331,0,0,0,1.514.418A3.35,3.35,0,0,1,7.515,8.519a9.5,9.5,0,0,0,6.893,3.5,3.347,3.347,0,0,1,5.7-3.051,6.676,6.676,0,0,0,2.125-.812A3.359,3.359,0,0,1,20.76,10a6.649,6.649,0,0,0,1.921-.526A6.728,6.728,0,0,1,21.014,11.205Z" fill="#0ec8de"/>
    </g>
  </g>
</svg>
